<svg t="1755226177955" class="icon" viewBox="0 0 1431 1024" version="1.1" xmlns="http://www.w3.org/2000/svg" p-id="13007" width="200" height="200"><path d="M624.217808 201.750221h17.994995c103.464738 0 187.3383 83.873562 187.3383 187.3383 0 103.462886-83.873562 187.3383-187.3383 187.3383H187.3383C83.873562 576.426821 0 492.551407 0 389.088521c0-93.715443 68.809837-171.357975 158.664448-185.158828C173.848535 88.832463 272.345114 0 391.590192 0c118.489577 0 216.49545 87.712174 232.627616 201.750221z" fill="#0F62FE" p-id="13008"></path><path d="M1112.491747 441.736564h41.504405c152.88894 0 276.829975 123.941034 276.829975 276.831827v27.216549c0 152.890792-123.941034 276.831826-276.831827 276.831827H421.562098c-152.890792 0-276.831826-123.941034-276.831827-276.831827v-27.216549c0-142.543392 107.734799-259.92379 246.221078-275.157874 24.28528-177.613078 176.605743-314.455031 360.886857-314.455031 183.701526 0 335.642387 135.982756 360.653541 312.781078z" fill="#C1D0FF" fill-opacity=".4" p-id="13009"></path><path d="M1099.626011 456.550307l-1.801722-12.737967c-23.990857-169.595139-169.767349-300.04311-345.986083-300.04311-176.77425 0-322.913678 131.271986-346.210141 301.646698l-1.566553 11.454727-11.491762 1.264723C261.510712 472.551002 159.544014 583.661483 159.544014 718.568391v27.216549c0 144.708051 117.310033 262.018083 262.018084 262.018084h732.432202c144.709902 0 262.018083-117.310033 262.018083-262.018084v-27.216549c0-144.708051-117.308181-262.018083-262.016231-262.018084h-54.370141z m-708.674662-13.13979C252.465071 458.6446 144.730271 576.024998 144.730271 718.568391v27.216549c0 152.890792 123.941034 276.831826 276.831827 276.831827h732.432202c152.890792 0 276.831826-123.941034 276.831827-276.831827v-27.216549c0-152.890792-123.941034-276.831826-276.829975-276.831827h-41.504405c-25.011154-176.798322-176.952014-312.781078-360.653541-312.781078-184.281114 0-336.601577 136.841953-360.886857 314.455031z" fill="#FFFFFF" fill-opacity=".3" p-id="13010"></path><path d="M677.728752 778.338141V548.634387c0-22.639103 25.631479-35.769635 44.004224-22.540962l167.517512 120.611646c15.843298 11.404731 15.285931 35.164123-1.070293 45.815204l-167.517511 109.092108C702.186242 813.644846 677.728752 800.386546 677.728752 778.338141z" fill="#FFFFFF" p-id="13011"></path></svg>