<svg t="1755226256238" class="icon" viewBox="0 0 1024 1024" version="1.1" xmlns="http://www.w3.org/2000/svg" p-id="13176" width="200" height="200"><path d="M573.0816 532.48m-403.5072 0a403.5072 403.5072 0 1 0 807.0144 0 403.5072 403.5072 0 1 0-807.0144 0Z" fill="#A5ADF6" p-id="13177"></path><path d="M451.4816 490.4448m-403.5072 0a403.5072 403.5072 0 1 0 807.0144 0 403.5072 403.5072 0 1 0-807.0144 0Z" fill="#A5ADF6" p-id="13178"></path><path d="M169.5744 532.48c0 153.6 85.8624 287.1808 212.1728 355.328 22.6816 3.9424 45.9264 6.144 69.7344 6.144 222.8736 0 403.5072-180.6848 403.5072-403.5072 0-153.6-85.8624-287.1808-212.1728-355.328-22.6816-3.9424-45.9264-6.144-69.7344-6.144-222.8736 0-403.5072 180.6336-403.5072 403.5072z" fill="#635DF7" p-id="13179"></path><path d="M373.8112 715.8272c-15.0528 0-30.1056-3.9424-43.8272-11.8784-27.4432-15.8208-43.8272-44.2368-43.8272-75.9296V381.4912c0-31.6928 16.384-60.0576 43.8272-75.9296 27.4432-15.8208 60.2112-15.8208 87.6544 0l213.504 123.2896c27.4432 15.8208 43.8272 44.2368 43.8272 75.9296 0 31.6928-16.384 60.0576-43.8272 75.8784l-213.504 123.2896c-13.6704 7.8848-28.7744 11.8784-43.8272 11.8784z m0.0512-340.1216c-0.8192 0-1.8432 0.2048-2.9184 0.8192-2.8672 1.6384-2.8672 4.1472-2.8672 4.9664v246.528c0 0.8192 0 3.328 2.8672 4.9664 2.8672 1.6896 5.0176 0.4096 5.7344 0l213.504-123.2896c0.7168-0.4096 2.8672-1.6384 2.8672-4.9664 0-3.328-2.1504-4.5568-2.8672-4.9664l-213.504-123.2896c-0.4096-0.2048-1.4336-0.768-2.816-0.768z" fill="#FFFFFF" p-id="13180"></path></svg>