<svg t="1755226981323" class="icon" viewBox="0 0 1024 1024" version="1.1" xmlns="http://www.w3.org/2000/svg" p-id="24034" width="200" height="200"><path d="M883.136 161.941333a27.413333 27.413333 0 0 0-21.333333-21.333333 472.448 472.448 0 0 0-486.4 179.2 29.312 29.312 0 0 1-17.066667 10.666667 369.877333 369.877333 0 0 0-172.8 98.133333 407.978667 407.978667 0 0 0-57.6 74.666667 27.946667 27.946667 0 0 0 10.666667 38.4 30.229333 30.229333 0 0 0 23.466666 2.133333 393.088 393.088 0 0 1 110.933334-21.333333 30.4 30.4 0 0 1 25.6 12.8 986.688 986.688 0 0 0 85.333333 102.4 986.688 986.688 0 0 0 102.4 85.333333 30.4 30.4 0 0 1 12.8 25.6 393.088 393.088 0 0 1-21.333333 110.933333 26.922667 26.922667 0 0 0 17.066666 36.266667 29.354667 29.354667 0 0 0 23.466667-2.133333 496.448 496.448 0 0 0 74.666667-57.6 377.92 377.92 0 0 0 98.133333-172.8 46.442667 46.442667 0 0 1 10.666667-17.066667 466.602667 466.602667 0 0 0 181.333333-484.266667z m-192 305.066667a95.082667 95.082667 0 0 1-145.066667-121.6 95.189333 95.189333 0 1 1 145.066667 121.6z" fill="#2F54EB" p-id="24035"></path><path d="M268.736 667.541333c-19.2 19.2-104.533333 145.066667-81.066667 168.533334s149.333333-61.866667 168.533334-81.066667a62.144 62.144 0 0 0-17.066667-87.466667 60.906667 60.906667 0 0 0-70.4 0z" fill="#2F54EB" p-id="24036"></path></svg>