<svg t="1755227044347" class="icon" viewBox="0 0 1024 1024" version="1.1" xmlns="http://www.w3.org/2000/svg" p-id="25090" width="200" height="200"><path d="M768 1024H256C115.2 1024 0 908.8 0 768V256C0 115.2 115.2 0 256 0h512c140.8 0 256 115.2 256 256v512c0 140.8-115.2 256-256 256z" fill="#9F53E6" p-id="25091"></path><path d="M567.466667 780.8c-4.266667 0-8.533333-2.133333-12.8-6.4l-102.4-162.133333-204.8-14.933334c-6.4 0-10.666667-6.4-12.8-12.8-2.133333-6.4 0-12.8 6.4-17.066666l452.266666-285.866667c4.266667-2.133333 8.533333-4.266667 12.8-2.133333 8.533333 2.133333 10.666667 10.666667 10.666667 17.066666l-132.266667 469.333334c-2.133333 6.4-6.4 10.666667-12.8 12.8-2.133333 2.133333-2.133333 2.133333-4.266666 2.133333z" fill="#FFFFFF" p-id="25092"></path></svg>