<svg t="1755227168378" class="icon" viewBox="0 0 1024 1024" version="1.1" xmlns="http://www.w3.org/2000/svg" p-id="33672" width="200" height="200"><path d="M925.60497778 88.49180445H98.39502222c-54.17642667 0-98.44963555 44.27320889-98.44963555 98.44963555v650.11712c0 54.17642667 44.27320889 98.44963555 98.44963555 98.44963555h827.20995556c54.17642667 0 98.44963555-44.27320889 98.44963555-98.44963555V186.94144c-0.58254222-54.17642667-44.27320889-98.44963555-98.44963555-98.44963555zM726.37553778 529.47626667H529.47626667v196.89927111c0 9.90321778-7.57304889 17.47626667-17.47626667 17.47626667s-17.47626667-7.57304889-17.47626667-17.47626667V529.47626667H298.20700445c-9.90321778 0-17.47626667-7.57304889-17.47626667-17.47626667s7.57304889-17.47626667 17.47626667-17.47626667H494.52373333V298.20700445c0-9.90321778 7.57304889-17.47626667 17.47626667-17.47626667s17.47626667 7.57304889 17.47626667 17.47626667V494.52373333h196.89927111c9.90321778 0 17.47626667 7.57304889 17.47626667 17.47626667s-8.15559111 17.47626667-17.47626667 17.47626667z" fill="#FF7229" p-id="33673"></path></svg>