<svg t="1754648345255" class="icon" viewBox="0 0 1024 1024" version="1.1" xmlns="http://www.w3.org/2000/svg" p-id="36710" width="200" height="200"><path d="M128.853333 127.573333m137.813334 0l492.373333 0q137.813333 0 137.813333 137.813334l0 490.88q0 137.813333-137.813333 137.813333l-492.373333 0q-137.813333 0-137.813334-137.813333l0-490.88q0-137.813333 137.813334-137.813334Z" fill="#FF874A" p-id="36711"></path><path d="M419.413333 603.733333a59.093333 59.093333 0 0 1 0 93.44 158.933333 158.933333 0 0 1-96.213333 37.546667 36.48 36.48 0 0 1-6.826667 0A30.293333 30.293333 0 0 1 290.346667 704V696.746667a158.506667 158.506667 0 0 1 36.266666-92.373334c32-32.64 64-29.226667 91.946667 0l0.853333-0.64z" fill="#FFFFFF" p-id="36712"></path><path d="M720 324.266667a42.666667 42.666667 0 0 0-25.813333-25.6l-4.906667-1.706667-5.12-1.493333a198.826667 198.826667 0 0 0-159.146667 21.333333l-5.76 3.413333-6.186666 3.84a317.653333 317.653333 0 0 0-53.973334 42.666667l-3.2 3.2h-3.84c-37.973333-2.773333-90.88 28.373333-162.56 91.093333h-1.066666v1.28a18.133333 18.133333 0 0 0 8.533333 28.586667L384 520.32l1.493333 2.346667a414.933333 414.933333 0 0 0 51.84 64l6.4 6.4 6.613334 6.4a479.381333 479.381333 0 0 0 42.666666 34.986666l2.56 1.706667 26.666667 85.333333v1.706667a17.706667 17.706667 0 0 0 29.866667 4.693333l7.68-9.173333 4.053333-5.12c47.786667-58.453333 73.813333-103.893333 77.44-138.026667v-1.706666l5.333333-5.12 5.546667-5.76a315.712 315.712 0 0 0 49.706667-66.773334 206.72 206.72 0 0 0 18.133333-171.946666z m-117.12 170.666666a56.106667 56.106667 0 1 1 0-79.36 56.106667 56.106667 0 0 1 0 79.146667v0.213333z" fill="#FFFFFF" p-id="36713"></path><path d="M602.88 494.72a56.106667 56.106667 0 1 1-79.338667-79.36 56.106667 56.106667 0 0 1 79.338667 79.36z" fill="#FFB38D" p-id="36714"></path></svg>