<svg t="1754648612528" class="icon" viewBox="0 0 1024 1024" version="1.1" xmlns="http://www.w3.org/2000/svg" p-id="39640" width="200" height="200"><path d="M137.870933 141.538133h689.085867c11.008 0.288 21.5872-4.2496 29.467733-12.6336 7.790933-8.401067 12.0704-19.786667 11.867734-31.588266 0.2048-11.799467-4.074667-23.1872-11.867734-31.588267-7.7824-8.330667-18.434133-12.900267-29.467733-12.637867H137.870933c-11.0336-0.2624-21.6832 4.3072-29.461333 12.637867-7.793067 8.401067-12.074667 19.786667-11.872 31.588267 0 25.154133 17.915733 44.221867 41.333333 44.221866zM840.829867 179.441067h-0.055467l1.442133 1.546666h0.046934z" fill="#E63233" p-id="39641"></path><path d="M242.4512 449.879467c31.944533-9.186133 51.963733 92.810667 109.973333 93.6192 58.065067 0.746667 88.981333-29.922133 123.0272-91.3728 21.156267-22.973867 31.0848 18.261333 40.0448 35.7184 8.957867 17.461333 37.0176 64.034133 91.733334 61.736533 65.725867-2.756267 73.495467-39.797333 111.6992-101.307733 18.254933-10.961067 25.9008 9.173333 37.1584 34.717866 25.013333-9.0688 51.68-13.8048 79.074133-13.8048 37.216 0 73.092267 8.733867 105.290667 25.211734 15.304533-24.104533 24.433067-53.032533 24.433066-81.960534L879.4112 180.992l-37.149867-0.0064 6.5536 7.069867-6.600533-7.069867-759.541333-0.110933v-0.113067L0.002133 412.439467c0 69.262933 53.582933 136.6272 119.793067 136.6272 66.101333 0 97.130667-91.2 122.656-99.1872z" fill="#E63233" p-id="39642"></path><path d="M730.5216 919.8528a163.767467 163.767467 0 0 0-24.674133-27.131733c-64.0384-43.176533-102.178133-114.7456-102.178134-192.0384 0-23.511467 3.492267-46.487467 10.208-68.341334a122.304 122.304 0 0 1-10.824533 0.494934c-52.782933 0-100.270933-34.129067-119.985067-86.24-20.224 52.288-68.177067 86.3424-121.307733 86.146133-52.727467-0.021333-100.170667-34.101333-119.901867-86.146133-25.457067 66.295467-94.1504 101.060267-158.536533 80.228266v285.546667c0 26.532267 27.575467 58.8672 52.343467 58.8672h624.8384a83.445333 83.445333 0 0 1-6.141867-14.5856c-4.512-7.7248-13.194667-22.0416-23.84-36.8z" fill="#E63233" p-id="39643"></path><path d="M835.1616 511.854933c-104.288 0-188.829867 84.539733-188.829867 188.829867 0 66.084267 33.9456 124.2368 85.346134 157.979733 9.2416 7.831467 21.6448 19.8784 33.437866 36.221867 14.600533 20.232533 25.661867 39.4048 28.996267 45.3184 4.0128 18.990933 20.866133 33.243733 41.0496 33.243733 20.8448 0 38.133333-15.191467 41.408-35.108266 2.408533-7.733333 9.499733-26.365867 26.3616-45.271467 15.8784-17.8048 30.365867-30.016 39.921067-37.243733a183.9104 183.9104 0 0 0 6.2784-4.561067c3.4624-2.4 5.4208-3.566933 5.4208-3.566933h-0.866134c0.578133-0.465067 1.154133-0.930133 1.7216-1.405867C997.303467 811.658667 1024 759.2832 1024 700.682667c0-104.288-84.541867-188.827733-188.8384-188.827734z m0 276.714667c-48.533333 0-87.8784-39.3472-87.8784-87.8848s39.345067-87.882667 87.8784-87.882667c48.5376 0 87.882667 39.345067 87.882667 87.882667s-39.345067 87.8848-87.882667 87.8848z" fill="#E63233" p-id="39644"></path></svg>