<svg t="1754646430149" class="icon" viewBox="0 0 1024 1024" version="1.1" xmlns="http://www.w3.org/2000/svg" p-id="10091" width="200" height="200"><path d="M857.61160009 590.66532862c-4.5135818 0.64479817-9.02716895 0.64479817-13.54075623 0.64479824-4.5135818 0-9.02716895 0-13.54075087-0.64479824l-11.60636166-1.93439442c-0.64479817 0-1.93439451 0-2.57918736-0.64479822-1.93439451 0-3.22399088-0.64479817-5.15838534-1.28959641-1.93439451-0.64479817-3.86878903-0.64479817-5.80317816-1.28959626-8.38237086-1.93439451-16.11994356 4.5135818-16.11994366 12.2511599v57.38699982c0 14.18554911-11.60636172 25.79191084-25.79191069 25.79191069h-501.00785765c-14.18554911 0-25.79191084-11.60636172-25.79191081-25.79191069v-57.38699982c0-8.38237086-7.7375727-14.83034722-16.1199436-12.2511599-1.93439451 0.64479817-3.86878903 1.28959636-5.80317815 1.28959626-1.93439451 0-3.22399088 0.64479817-5.15838534 1.28959641-0.64479817 0-1.93439451 0-2.57919279 0.64479822-3.86878903 0.64479817-7.7375727 1.28959636-11.60635628 1.28959627-4.5135818 0.64479817-9.02716895 0.64479817-13.54075619 0.64479815-4.5135818 0-9.02716895 0-13.540751-0.64479815-7.7375727-0.64479817-13.54075089 5.15837997-13.54075082 12.89595277V858.90119115c0 21.92312171 18.69913628 39.97745982 41.26705623 39.97746517h635.77058965c22.56791994 0 41.26705619-18.05433809 41.26705617-39.97746517v-255.33990976c-1.93439451-7.7375727-8.38237086-13.54075089-15.47514545-12.89595277zM208.30025421 208.30025421h608.04428976c23.21271811 0 41.26705619-18.69913628 41.26705612-41.26705624 0-23.21271811-18.69913628-41.26705619-41.26705612-41.26705604h-608.04428976c-23.21271811 0-41.26705619 18.69913628-41.26705624 41.26705604-0.64479817 22.56791994 18.05433809 41.26705619 41.26705624 41.26705624zM927.24975449 416.5699296l-47.71503256-118.64278313c-11.60636172-29.01590164-39.97745982-48.35983071-71.57254883-48.35983609h-591.27954807c-31.59508889 0-59.96619239 19.3439344-71.57254875 48.35983609l-47.71503257 118.64278313c-5.80317818 14.83034722-7.09277447 30.95029082-2.57919258 46.42544145 12.89595271 43.84624882 53.51821605 76.08613598 101.23324859 76.08613608 45.78064335 0 84.46850689-29.01590164 99.29885402-70.28295783 1.93439451-5.80317818 10.31676534-5.80317818 12.25115454 0 14.83034722 40.62225803 53.51821605 70.28295777 99.2988595 70.28295783s84.46850689-29.01590164 99.29885404-70.28295783c1.93439451-5.80317818 10.31676534-5.80317818 12.25115453 0 14.83034722 40.62225803 53.51821605 70.28295777 99.29885415 70.28295783s84.46850689-29.01590164 99.29885402-70.28295783c1.93439451-5.80317818 10.31676534-5.80317818 12.25115993 0 14.83034722 40.62225803 53.51821605 70.28295777 99.29885405 70.28295783 48.35983071 0 88.98208869-32.23988718 101.23324866-76.08613608 4.5135818-14.83034722 3.22399088-31.59508889-2.57919267-46.42544145z" fill="#FF6B6B" p-id="10092"></path></svg>