<svg t="1755226427686" class="icon" viewBox="0 0 1224 1024" version="1.1" xmlns="http://www.w3.org/2000/svg" p-id="20385" width="200" height="200"><path d="M822.786359 132.129032a132.129032 132.129032 0 1 0 132.129033-132.129032 132.129032 132.129032 0 0 0-132.129033 132.129032z" fill="#406AF2" p-id="20386"></path><path d="M541.068387 328.482212l228.252903 456.505806a165.16129 165.16129 0 0 1-147.701382 239.011982H165.114101a165.16129 165.16129 0 0 1-147.701382-239.011982l228.252903-456.505806a165.16129 165.16129 0 0 1 295.449954 0z" fill="#406AF2" p-id="20387"></path><path d="M1043.58341 540.643687l169.880184 339.760368a99.096774 99.096774 0 0 1-88.620829 143.407189h-339.760369a99.096774 99.096774 0 0 1-88.620829-143.407189l169.880184-339.760368a99.096774 99.096774 0 0 1 177.241659 0z" fill="#FCCF0A" p-id="20388"></path></svg>