<svg t="1755226368942" class="icon" viewBox="0 0 1024 1024" version="1.1" xmlns="http://www.w3.org/2000/svg" p-id="18500" width="200" height="200"><path d="M641.128748 0H382.871252C172.292063 0 0 172.292063 0 382.871252v258.257496c0 210.579189 172.292063 382.871252 382.871252 382.871252h258.257496c210.579189 0 382.871252-172.292063 382.871252-382.871252V382.871252C1023.8194 172.292063 851.707937 0 641.128748 0z m136.713933 652.325926s-53.999295 83.256437-139.242328 127.86455c-85.243034 44.608113-190.532628 31.785538-259.341094-11.377778-69.169665-43.343915-92.28642-80.005644-92.286419-80.005643L227.555556 722.759788s-12.280776 6.140388-12.280776-8.126984V502.067019s0-18.962963 14.447971-12.280776c11.919577 5.598589 142.493122 79.825044 183.669842 103.302999 22.574956 10.11358 2.708995 18.240564 2.708994 18.240564l-57.430688 32.869136s32.869136 40.99612 80.547443 62.668077c51.2903 26.728748 99.149206 29.798942 157.844092 7.585186 38.287125-14.447972 83.437037-51.470899 115.944973-106.192593l64.835274 44.066314z m30.160141-130.573545s0 18.962963-14.447972 12.100176c-11.919577-5.598589-142.493122-79.825044-183.669841-103.302998-22.574956-10.11358-2.708995-18.240564-2.708995-18.240564l57.430688-32.869136s-32.688536-40.99612-80.547443-62.668078c-51.2903-26.728748-99.149206-29.798942-157.844091-7.585185-38.287125 14.447972-83.437037 51.470899-115.944974 106.192593l-64.835273-43.885715s53.999295-83.256437 139.242328-127.86455c85.423633-44.608113 190.532628-31.785538 259.521693 11.377778 68.989065 43.343915 92.28642 79.825044 92.28642 79.825044l59.417284-33.952734s12.280776-6.140388 12.280776 8.126984v212.746385z" fill="#DB3B2A" p-id="18501"></path></svg>