<svg t="1754648208924" class="icon" viewBox="0 0 1024 1024" version="1.1" xmlns="http://www.w3.org/2000/svg" p-id="35287" width="200" height="200"><path d="M689.5616 950.8864l-283.2384-98.8672c-40.8576-14.2848-62.4128-58.9312-48.1792-99.7888l190.0544-544.4096c14.2848-40.8576 58.9312-62.4128 99.7888-48.1792l283.2384 98.8672c40.8576 14.2848 62.4128 58.9312 48.1792 99.7888l-190.0544 544.4096c-14.2336 40.8576-58.9312 62.4128-99.7888 48.1792z" fill="#000100" p-id="35288"></path><path d="M715.3152 962.9184c-9.3696 0-18.944-1.536-28.2624-4.8128l-283.2384-98.8672a85.49888 85.49888 0 0 1-49.152-43.8272 85.4528 85.4528 0 0 1-3.7376-65.7408l190.0544-544.4096c7.5776-21.7088 23.1424-39.168 43.8272-49.152a85.4528 85.4528 0 0 1 65.7408-3.7376l283.2384 98.8672c21.7088 7.5776 39.168 23.1424 49.152 43.8272 9.984 20.6848 11.3152 44.032 3.7376 65.7408L796.672 905.216c-12.4416 35.4816-45.7728 57.7024-81.3568 57.7024z m-23.2448-19.3024c36.8128 12.8512 77.2096-6.656 90.0096-43.4176l190.0032-544.4096c6.1952-17.8176 5.12-37.0176-3.072-54.016s-22.528-29.7984-40.3456-36.0448l-283.2384-98.8672c-17.8176-6.1952-37.0176-5.12-54.016 3.072s-29.7984 22.528-35.9936 40.3456L365.4144 754.7392c-6.1952 17.8176-5.12 37.0176 3.072 54.016s22.528 29.7984 40.3456 35.9936l283.2384 98.8672z" fill="#FFF100" p-id="35289"></path><path d="M590.8992 245.57056l333.24032 116.3008-146.67264 420.2496-333.24032-116.3008z" fill="#000100" p-id="35290"></path><path d="M777.472 789.8624c-0.8704 0-1.6896-0.1536-2.5088-0.4096l-333.2096-116.3264c-3.9936-1.3824-6.144-5.7856-4.7104-9.7792l146.688-420.2496c0.6656-1.9456 2.0992-3.4816 3.8912-4.4032 1.8432-0.8704 3.9424-1.024 5.888-0.3584L926.72 354.6624c3.9936 1.3824 6.144 5.7856 4.7104 9.7792l-146.688 420.2496c-0.6656 1.9456-2.0992 3.4816-3.8912 4.4032-1.1264 0.512-2.2528 0.768-3.3792 0.768z m-323.4816-128.7168l318.72 111.2576 141.6192-405.76-318.72-111.2576-141.6192 405.76z" fill="#FFF100" p-id="35291"></path><path d="M582.0928 806.4m-46.08 0a46.08 46.08 0 1 0 92.16 0 46.08 46.08 0 1 0-92.16 0Z" fill="#000100" p-id="35292"></path><path d="M582.144 860.2112c-5.9904 0-11.9808-1.024-17.7664-3.0208-28.0064-9.7792-42.8032-40.4992-33.024-68.4544 9.7792-28.0064 40.448-42.8032 68.4544-33.024 13.568 4.7104 24.4736 14.4384 30.72 27.392a53.4528 53.4528 0 0 1 2.3552 41.0624c-4.7104 13.568-14.4384 24.4736-27.392 30.72-7.4752 3.4816-15.4112 5.3248-23.3472 5.3248z m-0.1024-92.2112c-5.6832 0-11.3664 1.28-16.64 3.84-9.216 4.4544-16.1792 12.2368-19.5584 21.9136-6.9632 19.968 3.6352 41.9328 23.6032 48.896 9.6768 3.3792 20.1216 2.7648 29.3376-1.6896 9.216-4.4544 16.1792-12.2368 19.5584-21.9136 3.3792-9.6768 2.7648-20.1216-1.6896-29.3376a38.18496 38.18496 0 0 0-21.9136-19.5584 38.912 38.912 0 0 0-12.6976-2.1504z" fill="#FFF100" p-id="35293"></path><path d="M577.6384 863.5904L286.72 937.0112c-41.984 10.5984-84.5824-14.848-95.1296-56.832L50.5344 321.0752c-10.5984-41.984 14.848-84.5824 56.832-95.1296L398.2848 152.576c41.984-10.5984 84.5824 14.848 95.1296 56.832l141.056 559.104c10.5472 41.8816-14.8992 84.48-56.832 95.0784z" fill="#000100" p-id="35294"></path><path d="M267.4176 947.0976c-15.36 0-30.464-4.1472-43.9808-12.1856-19.712-11.776-33.6896-30.5664-39.3216-52.8384L43.0592 322.9184c-5.632-22.272-2.2528-45.4144 9.5744-65.1776 11.776-19.712 30.5664-33.6896 52.8384-39.3216l290.9184-73.3696c22.272-5.632 45.4144-2.2016 65.1776 9.5744 19.712 11.776 33.6896 30.5664 39.3216 52.8384l141.056 559.104c5.632 22.272 2.2528 45.4144-9.5744 65.1776-11.776 19.712-30.5664 33.6896-52.8384 39.3216l-290.9184 73.3696c-7.0144 1.792-14.1312 2.6624-21.1968 2.6624zM417.3824 157.7984c-5.6832 0-11.52 0.7168-17.3056 2.1504L109.2096 233.3696c-37.7856 9.5232-60.7744 48.0256-51.2512 85.8112l141.056 559.104c4.608 18.3296 16.0768 33.6896 32.3072 43.4176 16.2304 9.6768 35.2256 12.4928 53.504 7.8336l290.9184-73.3696c18.3296-4.608 33.7408-16.0768 43.4176-32.3072s12.4416-35.2256 7.8336-53.504L485.9392 211.2C477.8496 179.2 449.024 157.7984 417.3824 157.7984z" fill="#FFF100" p-id="35295"></path><path d="M107.01824 329.11872l342.24128-86.33856 108.88192 431.60064-342.2464 86.33856z" fill="#000100" p-id="35296"></path><path d="M215.9104 768.4096c-3.4304 0-6.5536-2.304-7.424-5.7856l-108.9024-431.616c-0.512-1.9968-0.2048-4.0448 0.8704-5.8368 1.024-1.7408 2.7648-3.0208 4.7104-3.5328l342.2208-86.3232c4.1472-1.0752 8.2944 1.4848 9.3184 5.5808l108.9024 431.5648c0.512 1.9968 0.2048 4.0448-0.8704 5.8368-1.024 1.7408-2.7648 3.0208-4.7104 3.5328l-342.2208 86.3232c-0.6656 0.1536-1.28 0.256-1.8944 0.256zM116.3264 334.6944l105.1136 416.7168 327.3216-82.5856-105.1136-416.7168-327.3216 82.5856z" fill="#FFF100" p-id="35297"></path><path d="M408.3712 802.1504m-46.08 0a46.08 46.08 0 1 0 92.16 0 46.08 46.08 0 1 0-92.16 0Z" fill="#000100" p-id="35298"></path><path d="M408.3712 855.9104c-24.064 0-45.9776-16.2816-52.1216-40.6016-3.5328-13.9264-1.3824-28.3648 5.9904-40.704s19.0976-21.0432 33.024-24.576c13.9264-3.5328 28.3648-1.3824 40.704 5.9904s21.0432 19.0976 24.576 33.024c7.2704 28.7232-10.24 58.0096-38.9632 65.28-4.4544 1.0752-8.8576 1.5872-13.2096 1.5872z m0-92.16c-3.1232 0-6.2464 0.3584-9.3696 1.1776a38.2976 38.2976 0 0 0-23.6032 17.5616 38.0928 38.0928 0 0 0-4.2496 29.0816c5.1712 20.5312 26.112 32.9728 46.6432 27.8528 20.5312-5.1712 33.024-26.112 27.8528-46.6432a38.58432 38.58432 0 0 0-37.2736-29.0304z" fill="#FFF100" p-id="35299"></path><path d="M595.0464 280.8832m-210.6368 0a210.6368 210.6368 0 1 0 421.2736 0 210.6368 210.6368 0 1 0-421.2736 0Z" fill="#000100" p-id="35300"></path><path d="M595.0464 499.2c-120.3712 0-218.3168-97.9456-218.3168-218.2656s97.9456-218.2656 218.3168-218.2656 218.2656 97.9456 218.2656 218.2656-97.8944 218.2656-218.2656 218.2656z m0-421.2224c-111.9232 0-202.9568 91.0336-202.9568 202.9056S483.1232 483.84 595.0464 483.84c111.872 0 202.9056-91.0336 202.9056-202.9056s-91.0336-202.9568-202.9056-202.9568z" fill="#FFF100" p-id="35301"></path><path d="M685.3632 301.6192h-62.6176v-26.5216h62.6176c12.7488 0 23.04-10.2912 23.04-23.04s-10.2912-23.04-23.04-23.04h-35.5328l22.9376-29.0816a23.04512 23.04512 0 0 0-36.1984-28.5184l-37.7344 47.872-42.0864-47.2576c-8.448-9.472-23.04-10.3424-32.512-1.8944a23.0144 23.0144 0 0 0-1.8944 32.512l23.4496 26.3168h-31.744c-12.7488 0-23.04 10.2912-23.04 23.04s10.2912 23.04 23.04 23.04h62.6176v26.5216H514.048c-12.7488 0-23.04 10.2912-23.04 23.04s10.2912 23.04 23.04 23.04h62.6176v52.9408c0 12.7488 10.2912 23.04 23.04 23.04s23.04-10.2912 23.04-23.04V347.6992h62.6176c12.7488 0 23.04-10.2912 23.04-23.04s-10.2912-23.04-23.04-23.04z" fill="#000100" p-id="35302"></path><path d="M599.7056 431.36c-16.9472 0-30.72-13.7728-30.72-30.72v-45.2608H514.048c-16.9472 0-30.72-13.7728-30.72-30.72s13.7728-30.72 30.72-30.72h54.9376v-11.1616H514.048c-16.9472 0-30.72-13.7728-30.72-30.72s13.7728-30.72 30.72-30.72h14.592l-12.0832-13.5168a30.75072 30.75072 0 0 1 2.5088-43.3664 30.75072 30.75072 0 0 1 43.3664 2.5088l35.9936 40.3968 32.0512-40.704a30.76096 30.76096 0 0 1 43.1616-5.12 30.76096 30.76096 0 0 1 5.12 43.1616L665.6 221.3376h19.712c16.9472 0 30.72 13.7728 30.72 30.72s-13.7728 30.72-30.72 30.72h-54.9376v11.1616h54.9376c16.9472 0 30.72 13.7728 30.72 30.72s-13.7728 30.72-30.72 30.72h-54.9376v45.2608c0.0512 16.9472-13.7216 30.72-30.6688 30.72z m-85.6064-122.0608c-8.448 0-15.36 6.912-15.36 15.36s6.912 15.36 15.36 15.36h62.6176c4.2496 0 7.68 3.4304 7.68 7.68v52.9408c0 8.448 6.912 15.36 15.36 15.36s15.36-6.912 15.36-15.36V347.6992c0-4.2496 3.4304-7.68 7.68-7.68h62.6176c8.448 0 15.36-6.912 15.36-15.36s-6.912-15.36-15.36-15.36h-62.6176c-4.2496 0-7.68-3.4304-7.68-7.68v-26.5216c0-4.2496 3.4304-7.68 7.68-7.68h62.6176c8.448 0 15.36-6.912 15.36-15.36s-6.912-15.36-15.36-15.36h-35.5328c-2.9184 0-5.632-1.6896-6.912-4.3008-1.28-2.6624-0.9216-5.7856 0.8704-8.0896l22.9376-29.0816c5.2224-6.656 4.096-16.3328-2.56-21.5552-6.656-5.2736-16.3328-4.096-21.5552 2.56l-37.7344 47.872c-1.4336 1.792-3.5328 2.8672-5.7856 2.9184-2.3552 0.1536-4.4544-0.8704-5.9904-2.56l-42.0864-47.2576c-5.632-6.2976-15.36-6.8608-21.7088-1.2288s-6.8608 15.36-1.2288 21.7088l23.4496 26.3168a7.69536 7.69536 0 0 1-5.7344 12.8h-31.744c-8.448 0-15.36 6.912-15.36 15.36s6.912 15.36 15.36 15.36h62.6176c4.2496 0 7.68 3.4304 7.68 7.68v26.5216c0 4.2496-3.4304 7.68-7.68 7.68h-62.6176z" fill="#FFF100" p-id="35303"></path></svg>