<svg t="1754648138068" class="icon" viewBox="0 0 1024 1024" version="1.1" xmlns="http://www.w3.org/2000/svg" p-id="32339" width="200" height="200"><path d="M859.990111 281.243429 202.05846 281.243429c0 0-49.79408-9.890254-49.79408-39.389102l717.806319-69.053726L870.0707 113.803929c0 0-8.80862-53.978379-89.6406-39.391149L142.345474 182.690856c0 0-79.721693 9.891278-79.721693 108.442828l0 561.638537c0 54.440913 44.669362 98.543364 99.730399 98.543364l697.78738 0c55.070246 0 99.730399-44.102451 99.730399-98.543364L959.871959 379.794979C959.719486 325.337693 915.051147 281.243429 859.990111 281.243429zM486.208079 650.16271c-2.731204 0.892323-7.188726 1.336438-13.375635 1.336438l-29.485545 0c-8.005324 0-14.013155 1.959631-18.014282 5.882987-4.00522 3.921309-6.007831 9.091052-6.007831 15.507182l0 51.876508c0 6.063089-2.728134 12.121062-8.188496 18.181081-5.461385 6.063089-12.011568 9.094122-19.655665 9.094122l-21.295002 0c-5.460362 0-10.281157-2.051729-14.46648-6.149047-4.187369-4.102435-6.28003-11.32186-6.28003-21.661346 0-4.635577 0.091074-7.576559 0.273223-8.822946 0.180102-1.251503 0.271176-2.854001 0.271176-4.813632 0-1.963725 0.093121-5.259794 0.275269-9.894348 0.183172-4.634554 0.273223-12.654204 0.273223-24.067138 0-8.911974-1.545192-15.329127-4.640694-19.25146-3.092431-3.923356-8.643867-5.882987-16.652262-5.882987l-29.482475 0c-8.372691 0-13.650905-1.693572-15.833617-5.083785-2.185782-3.382027-0.36532-8.640798 5.457292-15.774265 5.459339-7.128351 11.558244-15.420201 18.289552-24.866341 6.737448-9.450233 13.653975-19.255553 20.74958-29.41596 7.098675-10.159384 14.016225-20.051685 20.748556-29.67895 6.733355-9.626241 13.19451-18.185174 19.383466-25.672706 2.549056-2.849908 5.821589-5.080715 9.827833-6.681166 4.002151-1.606591 8.190543-2.49789 12.55392-2.674922 4.368494-0.178055 8.371668 0.265036 12.015661 1.334391 3.635807 1.068332 6.369058 2.852978 8.18645 5.349845 4.367471 7.488555 9.376555 15.775288 15.017018 24.869411 5.641487 9.090029 11.556197 18.270109 17.74106 27.542286 6.188956 9.268084 12.288884 18.446118 18.292622 27.541263 6.007831 9.091052 11.556197 17.557888 16.650215 25.40153l8.190543 13.368472c2.185782 3.564175 3.276626 6.418176 3.276626 8.556886C490.305397 647.75487 488.93826 649.272433 486.208079 650.16271zM815.222511 708.596564c-38.573527 0-69.784366-30.92022-69.784366-69.053726s31.210839-69.045539 69.784366-69.045539c38.58376 0 69.801762 30.91101 69.801762 69.045539S853.806271 708.596564 815.222511 708.596564z" fill="#272636" p-id="32340"></path></svg>