<svg t="1754646012523" class="icon" viewBox="0 0 1024 1024" version="1.1" xmlns="http://www.w3.org/2000/svg" p-id="8156" width="200" height="200"><path d="M716.8 0c169.664 0 307.2 137.536 307.2 307.2v409.6c0 169.664-137.536 307.2-307.2 307.2H307.2C137.536 1024 0 886.464 0 716.8V307.2C0 137.536 137.536 0 307.2 0h409.6z m98.4064 560H551.1808v264h264.0128V560z m-336 0H215.1808v264h264V560z m251.9936 84.0064v96h-96v-96h96z m-336 0v96h-96v-96h96z m288-468.0064L503.68 356.0064l179.52 179.5072L862.72 355.5328 683.2 176zM479.1936 224H215.2192v264h264V224z m204.0064 71.5136l60.48 60.0064-60.48 60.48-60.48-60.0064 60.48-60.48z m-288 12.4928v96h-96v-96h96z" fill="#FF853A" p-id="8157"></path></svg>