<svg t="1754648716016" class="icon" viewBox="0 0 1024 1024" version="1.1" xmlns="http://www.w3.org/2000/svg" p-id="43296" width="200" height="200"><path d="M0 0h1024v1024H0z" fill="#F55F5F" p-id="43297"></path><path d="M696.3712 535.0144a165.376 165.376 0 0 0-97.9968 275.6608H170.6752c0-151.9104 96.128-280.6528 229.0176-324.9152a170.6752 170.6752 0 1 1 188.672-4.48 325.12 325.12 0 0 1 108.032 53.7344z m23.6288 307.6608a144 144 0 1 1 0-288 144 144 0 0 1 0 288z m-49.024-110.6176l24.2688-77.9776 16.0256 126.0544c1.408 11.1616 15.6416 12.5952 18.944 1.92l22.2208-72.1664 10.8288 23.5008a9.728 9.728 0 0 0 8.7296 5.888H832v-21.3248h-53.9648l-18.6368-40.5248c-3.8912-8.4736-15.232-7.6032-18.0224 1.3824l-16.4608 53.4528-15.9488-125.7216c-1.4336-11.136-15.616-12.6208-18.944-1.9712l-35.328 113.3824h-57.344v21.3248h64.3584a9.8816 9.8816 0 0 0 9.2672-7.2192z" fill="#FFFFFF" p-id="43298"></path></svg>