<svg height="1024" node-id="1" sillyvg="true" template-height="1024" template-width="1024" version="1.1" viewBox="0 0 1024 1024" width="1024" xmlns="http://www.w3.org/2000/svg" xmlns:xlink="http://www.w3.org/1999/xlink"><defs node-id="134"><linearGradient gradientUnits="objectBoundingBox" id="linearGradient-1" node-id="5" spreadMethod="pad" x1="0.5" x2="0.5" y1="-0.2988559" y2="0.44050124"><stop offset="0" stop-color="#cfdffa"/><stop offset="1" stop-color="#eaf0fc" stop-opacity="0"/></linearGradient><linearGradient gradientUnits="objectBoundingBox" id="linearGradient-2" node-id="8" spreadMethod="pad" x1="0.5" x2="0.536227" y1="0.33748463" y2="0.6982291"><stop offset="0" stop-color="#cfdffa"/><stop offset="1" stop-color="#eaf0fc" stop-opacity="0"/></linearGradient><linearGradient gradientUnits="objectBoundingBox" id="linearGradient-3" node-id="11" spreadMethod="pad" x1="0.5" x2="0.536227" y1="0.3647456" y2="0.6649773"><stop offset="0" stop-color="#cfdffa"/><stop offset="1" stop-color="#eaf0fc" stop-opacity="0"/></linearGradient><linearGradient gradientUnits="objectBoundingBox" id="linearGradient-4" node-id="14" spreadMethod="pad" x1="0.5" x2="0.5728025" y1="0.11497374" y2="1"><stop offset="0" stop-color="#bfd4fa"/><stop offset="1" stop-color="#5792f0"/></linearGradient><linearGradient gradientUnits="objectBoundingBox" id="linearGradient-5" node-id="17" spreadMethod="pad" x1="0.5" x2="0.51940095" y1="0.11497374" y2="1.3188101"><stop offset="0" stop-color="#bfd4fa"/><stop offset="1" stop-color="#5792f0"/></linearGradient><linearGradient gradientUnits="objectBoundingBox" id="linearGradient-6" node-id="20" spreadMethod="pad" x1="0.5" x2="0.7428279" y1="0.130877" y2="1.2849896"><stop offset="0" stop-color="#bfd4fa"/><stop offset="1" stop-color="#5792f0"/></linearGradient><linearGradient gradientUnits="objectBoundingBox" id="linearGradient-7" node-id="23" spreadMethod="pad" x1="0.5" x2="0.54073364" y1="0.11497374" y2="1.3188101"><stop offset="0" stop-color="#bfd4fa"/><stop offset="1" stop-color="#5792f0"/></linearGradient><linearGradient gradientUnits="objectBoundingBox" id="linearGradient-8" node-id="26" spreadMethod="pad" x1="0.5" x2="0.5197958" y1="0.11497374" y2="1.3188101"><stop offset="0" stop-color="#bfd4fa"/><stop offset="1" stop-color="#5792f0"/></linearGradient><linearGradient gradientUnits="objectBoundingBox" id="linearGradient-9" node-id="29" spreadMethod="pad" x1="0.5" x2="0.5536437" y1="0.11497374" y2="1.3188101"><stop offset="0" stop-color="#bfd4fa"/><stop offset="1" stop-color="#5792f0"/></linearGradient><linearGradient gradientUnits="objectBoundingBox" id="linearGradient-10" node-id="32" spreadMethod="pad" x1="0.5" x2="0.7428279" y1="0.4825909" y2="0.53702277"><stop offset="0" stop-color="#bfd4fa"/><stop offset="1" stop-color="#5792f0"/></linearGradient><linearGradient gradientUnits="objectBoundingBox" id="linearGradient-11" node-id="35" spreadMethod="pad" x1="0.54518086" x2="0.51935977" y1="-0.9163265" y2="0.93870777"><stop offset="0" stop-color="#5792f0"/><stop offset="1" stop-color="#bfd4fa" stop-opacity="0"/></linearGradient><linearGradient gradientUnits="objectBoundingBox" id="linearGradient-12" node-id="38" spreadMethod="pad" x1="1.1846117" x2="-0.1793858" y1="1.1960512" y2="-0.012325581"><stop offset="0" stop-color="#5792f0"/><stop offset="1" stop-color="#bfd4fa"/></linearGradient><linearGradient gradientUnits="objectBoundingBox" id="linearGradient-13" node-id="41" spreadMethod="pad" x1="1.4685373" x2="-0.113176495" y1="0.5" y2="0.5"><stop offset="0" stop-color="#eaf0fc" stop-opacity="0"/><stop offset="1" stop-color="#cfdffa"/></linearGradient><linearGradient gradientUnits="objectBoundingBox" id="linearGradient-14" node-id="44" spreadMethod="pad" x1="1.4685373" x2="-0.113176495" y1="0.5" y2="0.5"><stop offset="0" stop-color="#eaf0fc" stop-opacity="0"/><stop offset="1" stop-color="#cfdffa"/></linearGradient><linearGradient gradientUnits="objectBoundingBox" id="linearGradient-15" node-id="47" spreadMethod="pad" x1="1.1846117" x2="-0.1793858" y1="0.7700945" y2="0.30119807"><stop offset="0" stop-color="#5792f0"/><stop offset="1" stop-color="#bfd4fa"/></linearGradient><linearGradient gradientUnits="objectBoundingBox" id="linearGradient-16" node-id="50" spreadMethod="pad" x1="0.643533" x2="0.25728312" y1="0.0000000000000035527137" y2="1.3419466"><stop offset="0" stop-color="#cfdffa"/><stop offset="1" stop-color="#eaf0fc" stop-opacity="0"/></linearGradient><linearGradient gradientUnits="objectBoundingBox" id="linearGradient-17" node-id="53" spreadMethod="pad" x1="1.4685373" x2="-0.113176495" y1="0.5" y2="0.5"><stop offset="0" stop-color="#eaf0fc" stop-opacity="0"/><stop offset="1" stop-color="#cfdffa"/></linearGradient><linearGradient gradientUnits="objectBoundingBox" id="linearGradient-18" node-id="56" spreadMethod="pad" x1="1.4685373" x2="-0.113176495" y1="0.5" y2="0.5"><stop offset="0" stop-color="#eaf0fc" stop-opacity="0"/><stop offset="1" stop-color="#cfdffa"/></linearGradient><linearGradient gradientUnits="objectBoundingBox" id="linearGradient-19" node-id="59" spreadMethod="pad" x1="2.1919618" x2="-0.1793858" y1="1.8808751" y2="-0.11529062"><stop offset="0" stop-color="#5792f0"/><stop offset="1" stop-color="#bfd4fa"/></linearGradient><linearGradient gradientUnits="objectBoundingBox" id="linearGradient-20" node-id="62" spreadMethod="pad" x1="2.2832854" x2="-0.1793858" y1="1.7308236" y2="-0.11529062"><stop offset="0" stop-color="#5792f0"/><stop offset="1" stop-color="#bfd4fa"/></linearGradient><linearGradient gradientUnits="objectBoundingBox" id="linearGradient1" node-id="256" spreadMethod="pad" x1="0.14347483" x2="1" y1="0.11709897" y2="0.73632693"><stop offset="0" stop-color="#bfd4fa"/><stop offset="1" stop-color="#5792f0"/></linearGradient><linearGradient gradientUnits="objectBoundingBox" id="linearGradient-21" node-id="65" spreadMethod="pad" x1="0.14347483" x2="1" y1="0.11709897" y2="0.73632693"><stop offset="0" stop-color="#bfd4fa"/><stop offset="1" stop-color="#5792f0"/></linearGradient><linearGradient gradientUnits="objectBoundingBox" id="linearGradient-22" node-id="68" spreadMethod="pad" x1="0.437073" x2="0.5" y1="-0.31010887" y2="0.93127173"><stop offset="0" stop-color="#bfd4fa"/><stop offset="1" stop-color="#5792f0"/></linearGradient><linearGradient gradientUnits="objectBoundingBox" id="linearGradient-23" node-id="71" spreadMethod="pad" x1="0.5" x2="0.5" y1="0.12924309" y2="1"><stop offset="0" stop-color="#ffcda5"/><stop offset="1" stop-color="#ffe8d1"/></linearGradient><linearGradient gradientUnits="objectBoundingBox" id="linearGradient-24" node-id="74" spreadMethod="pad" x1="0.57685447" x2="0.1128" y1="0" y2="1"><stop offset="0" stop-color="#fff2df"/><stop offset="1" stop-color="#fee0bc"/></linearGradient><linearGradient gradientUnits="objectBoundingBox" id="linearGradient-25" node-id="77" spreadMethod="pad" x1="0.35606796" x2="2.1035957" y1="0.25737643" y2="0.6132207"><stop offset="0" stop-color="#fee127"/><stop offset="1" stop-color="#f9ab21"/></linearGradient><linearGradient gradientUnits="objectBoundingBox" id="linearGradient-26" node-id="80" spreadMethod="pad" x1="0.5" x2="0.5" y1="0" y2="1"><stop offset="0" stop-color="#fee127"/><stop offset="1" stop-color="#f9ab21"/></linearGradient><linearGradient gradientUnits="objectBoundingBox" id="linearGradient-27" node-id="83" spreadMethod="pad" x1="0.33270946" x2="1.2695981" y1="0.25737643" y2="0.3818161"><stop offset="0" stop-color="#fee127"/><stop offset="1" stop-color="#f9ab21"/></linearGradient></defs><path d="M 0.00 0.00 L 1024.00 0.00 L 1024.00 1024.00 L 0.00 1024.00 Z" fill="none" id="矩形" node-id="87" stroke="none" target-height="1024" target-width="1024" target-x="0" target-y="0"/><g node-id="304"><g node-id="305"><path d="M 992.00 915.00 C 992.00 981.30 941.43 1044.89 851.41 1091.78 C 761.39 1138.66 639.30 1165.00 512.00 1165.00 C 384.70 1165.00 262.61 1138.66 172.59 1091.78 C 82.57 1044.89 32.00 981.30 32.00 915.00 C 32.00 848.70 82.57 785.11 172.59 738.22 C 262.61 691.34 384.70 665.00 512.00 665.00 C 639.30 665.00 761.39 691.34 851.41 738.22 C 941.43 785.11 992.00 848.70 992.00 915.00 Z" fill="url(#linearGradient-1)" fill-rule="evenodd" group-id="1,2" id="椭圆形" node-id="90" stroke="none" target-height="500" target-width="960" target-x="32" target-y="665"/><path d="M 846.00 265.21 C 846.00 279.61 832.18 291.12 814.73 291.12 L 718.00 291.12 C 700.55 289.97 686.00 279.03 686.00 264.06 C 686.00 254.27 692.55 245.64 702.00 241.03 C 701.27 239.30 700.55 237.58 700.55 235.85 C 700.55 226.06 710.00 217.42 722.36 217.42 C 727.45 217.42 731.82 219.15 735.45 221.45 C 744.18 208.21 760.18 199.00 779.09 199.00 C 805.27 199.00 826.36 216.85 826.36 238.73 L 826.36 241.03 C 838.00 245.06 846.00 254.27 846.00 265.21 Z" fill="url(#linearGradient-2)" fill-rule="evenodd" group-id="1,2" id="云" node-id="91" stroke="none" target-height="92.121216" target-width="160" target-x="686" target-y="199"/><path d="M 198.22 149.00 C 222.89 149.00 243.88 164.77 251.66 186.78 L 288.50 186.78 C 298.16 186.78 306.00 194.61 306.00 204.28 L 306.00 247.06 C 306.00 256.72 298.16 264.56 288.50 264.56 L 110.17 264.56 C 100.50 264.56 92.67 256.72 92.67 247.06 L 92.67 234.65 C 88.44 227.85 86.00 219.82 86.00 211.22 C 86.00 186.68 105.90 166.78 130.44 166.78 C 138.38 166.78 145.83 168.86 152.27 172.50 C 162.57 158.26 179.31 149.00 198.22 149.00 Z" fill="url(#linearGradient-3)" fill-rule="evenodd" group-id="1,2" id="云" node-id="92" stroke="none" target-height="115.55554" target-width="220" target-x="86" target-y="149"/><g node-id="308"><path d="M 241.60 797.00 C 241.60 799.21 235.87 801.00 228.80 801.00 C 221.73 801.00 216.00 799.21 216.00 797.00 C 216.00 794.79 221.73 793.00 228.80 793.00 C 235.87 793.00 241.60 794.79 241.60 797.00 Z" fill="#ccdcf6" fill-rule="evenodd" group-id="1,2,5" id="椭圆形" node-id="94" stroke="none" target-height="8" target-width="25.600006" target-x="216" target-y="793"/><path d="M 215.21 795.43 C 216.95 766.33 224.25 749.48 237.12 744.89 C 242.18 744.22 247.82 743.20 243.89 749.76 C 239.95 756.32 229.42 753.77 218.88 795.42 C 217.93 797.20 216.70 797.20 215.21 795.43 Z" fill="url(#linearGradient-4)" fill-rule="nonzero" group-id="1,2,5" id="路径-42" node-id="95" stroke="none" target-height="54.002747" target-width="32.612976" target-x="215.2097" target-y="743.1997"/><path d="M 214.97 795.07 C 211.55 767.88 208.75 750.78 206.57 743.78 C 203.30 733.27 196.34 713.04 210.82 720.69 C 225.31 728.34 227.02 767.60 220.33 791.49 C 218.25 797.54 216.46 798.73 214.97 795.07 Z" fill="url(#linearGradient-5)" fill-rule="nonzero" group-id="1,2,5" id="路径-41" node-id="96" stroke="none" target-height="85.69464" target-width="30.686737" target-x="196.33743" target-y="713.036"/></g><g node-id="309"><path d="M 783.98 759.87 C 781.46 748.41 774.11 740.39 761.92 735.83 C 748.00 731.36 740.37 726.04 749.08 722.18 C 756.44 721.60 772.12 715.87 783.98 750.09 C 784.80 753.40 784.80 756.66 783.98 759.87 Z" fill="url(#linearGradient-6)" fill-rule="nonzero" group-id="1,2,6" id="路径-43" node-id="98" stroke="none" target-height="44.00116" target-width="44.433228" target-x="740.36975" target-y="715.8686"/><path d="M 784.60 761.69 C 777.27 734.32 768.94 714.34 759.61 701.75 C 752.77 693.15 753.25 680.83 759.61 678.05 C 766.13 677.32 778.14 676.20 787.19 723.36 C 787.76 726.61 790.95 745.59 787.19 757.83 C 786.63 759.51 785.77 760.80 784.60 761.69 Z" fill="url(#linearGradient-7)" fill-rule="nonzero" group-id="1,2,6" id="路径-44" node-id="99" stroke="none" target-height="85.48505" target-width="38.17993" target-x="752.7655" target-y="676.20276"/><path d="M 786.29 755.51 C 789.61 743.26 789.18 727.29 785.03 707.58 C 778.67 688.47 767.81 664.97 787.60 664.43 C 795.62 665.52 805.32 673.93 801.65 715.87 C 799.42 732.79 795.54 742.78 791.47 755.51 C 790.05 756.30 788.32 756.30 786.29 755.51 Z" fill="url(#linearGradient-8)" fill-rule="nonzero" group-id="1,2,6" id="路径-45" node-id="100" stroke="none" target-height="91.87378" target-width="37.505005" target-x="767.81244" target-y="664.4267"/><path d="M 790.16 760.26 C 788.84 725.64 795.17 700.79 809.17 685.72 C 812.95 680.68 827.34 675.96 827.28 691.75 C 825.78 698.54 822.57 713.04 804.04 735.15 C 797.94 743.13 793.92 754.79 793.89 757.53 C 793.86 759.35 792.62 760.26 790.16 760.26 Z" fill="url(#linearGradient-9)" fill-rule="nonzero" group-id="1,2,6" id="路径-46" node-id="101" stroke="none" target-height="84.29797" target-width="38.502014" target-x="788.8357" target-y="675.9647"/><path d="M 718.12 764.83 C 731.98 762.25 739.63 760.06 741.06 758.25 C 743.20 755.55 762.07 743.93 773.83 753.72 C 776.39 750.43 784.60 747.87 789.30 753.72 C 791.45 744.48 804.87 738.56 810.70 739.52 C 817.27 739.01 836.67 739.22 838.12 764.83 C 832.83 764.96 792.83 764.96 718.12 764.83 Z" fill="url(#linearGradient-10)" fill-rule="nonzero" group-id="1,2,6" id="路径-47" node-id="102" stroke="none" target-height="26.394897" target-width="120" target-x="718.12024" target-y="738.56274"/></g></g><g node-id="306"><g node-id="310"><path d="M 299.89 735.71 L 542.79 731.14 L 750.00 831.21 L 564.00 993.12 Z" fill="url(#linearGradient-11)" fill-opacity="0.3" fill-rule="nonzero" group-id="1,3,7" id="路径" node-id="104" stroke="none" target-height="261.98932" target-width="450.11465" target-x="299.88535" target-y="731.13525"/></g><path d="M 288.80 453.00 L 368.74 453.00 L 382.02 474.04 L 512.74 473.81 C 530.42 473.78 544.77 488.08 544.80 505.75 C 544.80 505.77 544.80 505.79 544.80 505.81 L 544.80 686.60 L 544.80 686.60 L 288.80 686.60 L 288.80 453.00 Z" fill="url(#linearGradient-12)" fill-rule="nonzero" group-id="1,3" id="矩形" node-id="105" stroke="none" target-height="233.59998" target-width="256" target-x="288.8" target-y="453"/><path d="M 316.00 504.20 L 524.00 504.20 L 524.00 734.60 L 316.00 734.60 Z" fill="url(#linearGradient-13)" fill-rule="evenodd" group-id="1,3" id="矩形" node-id="106" stroke="none" target-height="230.39996" target-width="208" target-x="316" target-y="504.2"/><path d="M 311.20 526.60 L 528.80 526.60 L 528.80 729.80 L 311.20 729.80 Z" fill="#ffffff" fill-rule="evenodd" group-id="1,3" id="矩形" node-id="107" stroke="none" target-height="203.20001" target-width="217.60004" target-x="311.2" target-y="526.6"/><path d="M 309.60 541.00 L 535.20 541.00 L 535.20 728.20 L 309.60 728.20 Z" fill="url(#linearGradient-14)" fill-rule="evenodd" group-id="1,3" id="矩形" node-id="108" stroke="none" target-height="187.20001" target-width="225.6" target-x="309.6" target-y="541"/><path d="M 268.00 561.80 L 572.00 561.80 L 544.36 734.60 L 295.64 734.60 Z" fill="url(#linearGradient-15)" fill-rule="nonzero" group-id="1,3" id="矩形" node-id="109" stroke="none" target-height="172.79999" target-width="304" target-x="268" target-y="561.8"/><path d="M 449.60 637.00 L 449.60 637.00 C 451.09 637.00 452.51 637.59 453.56 638.64 C 454.61 639.69 455.20 641.11 455.20 642.60 L 455.20 642.60 C 455.20 644.09 454.61 645.51 453.56 646.56 C 452.51 647.61 451.09 648.20 449.60 648.20 L 449.60 648.20 C 448.11 648.20 446.69 647.61 445.64 646.56 C 444.59 645.51 444.00 644.09 444.00 642.60 L 444.00 642.60 C 444.00 641.11 444.59 639.69 445.64 638.64 C 446.69 637.59 448.11 637.00 449.60 637.00 Z" fill="url(#linearGradient-16)" fill-rule="evenodd" group-id="1,3" id="矩形" node-id="110" stroke="none" target-height="11.200012" target-width="11.200012" target-x="444" target-y="637"/><path d="M 472.00 637.00 L 510.40 637.00 C 511.89 637.00 513.31 637.59 514.36 638.64 C 515.41 639.69 516.00 641.11 516.00 642.60 L 516.00 642.60 C 516.00 644.09 515.41 645.51 514.36 646.56 C 513.31 647.61 511.89 648.20 510.40 648.20 L 472.00 648.20 C 470.51 648.20 469.09 647.61 468.04 646.56 C 466.99 645.51 466.40 644.09 466.40 642.60 L 466.40 642.60 C 466.40 641.11 466.99 639.69 468.04 638.64 C 469.09 637.59 470.51 637.00 472.00 637.00 Z" fill="url(#linearGradient-17)" fill-rule="evenodd" group-id="1,3" id="矩形" node-id="111" stroke="none" target-height="11.200012" target-width="49.600006" target-x="466.4" target-y="637"/><path d="M 448.00 661.00 L 508.80 661.00 C 510.29 661.00 511.71 661.59 512.76 662.64 C 513.81 663.69 514.40 665.11 514.40 666.60 L 514.40 666.60 C 514.40 668.09 513.81 669.51 512.76 670.56 C 511.71 671.61 510.29 672.20 508.80 672.20 L 448.00 672.20 C 446.51 672.20 445.09 671.61 444.04 670.56 C 442.99 669.51 442.40 668.09 442.40 666.60 L 442.40 666.60 C 442.40 665.11 442.99 663.69 444.04 662.64 C 445.09 661.59 446.51 661.00 448.00 661.00 Z" fill="url(#linearGradient-18)" fill-rule="evenodd" group-id="1,3" id="矩形备份-2" node-id="112" stroke="none" target-height="11.200012" target-width="72.00003" target-x="442.4" target-y="661"/><path d="M 428.00 441.80 C 428.00 455.05 417.25 465.80 404.00 465.80 C 390.75 465.80 380.00 455.05 380.00 441.80 C 380.00 428.55 390.75 417.80 404.00 417.80 C 417.25 417.80 428.00 428.55 428.00 441.80 Z" fill="url(#linearGradient-19)" fill-rule="nonzero" group-id="1,3" id="椭圆形" node-id="113" stroke="none" target-height="48" target-width="48" target-x="380" target-y="417.8"/><path d="M 404.00 449.80 L 394.60 454.74 L 396.39 444.27 L 388.78 436.86 L 399.30 435.33 L 404.00 425.80 L 408.70 435.33 L 419.22 436.86 L 411.61 444.27 L 413.40 454.74 Z" fill="#ffffff" fill-rule="evenodd" group-id="1,3" id="星形" node-id="114" stroke="none" target-height="28.944275" target-width="30.433838" target-x="388.78308" target-y="425.8"/><path d="M 584.00 378.20 C 584.00 406.48 561.08 429.40 532.80 429.40 C 504.52 429.40 481.60 406.48 481.60 378.20 C 481.60 349.92 504.52 327.00 532.80 327.00 C 561.08 327.00 584.00 349.92 584.00 378.20 Z" fill="url(#linearGradient-20)" fill-rule="nonzero" group-id="1,3" id="椭圆形" node-id="115" stroke="none" target-height="102.400024" target-width="102.400024" target-x="481.59998" target-y="327"/><path d="M 529.60 388.40 L 529.60 381.60 L 532.80 381.60 C 538.24 381.60 542.40 377.18 542.40 371.40 L 542.40 368.00 C 542.40 362.22 538.24 357.80 532.80 357.80 C 527.36 357.80 523.20 362.22 523.20 368.00 L 523.20 371.40 L 516.80 371.40 L 516.80 368.00 C 516.80 358.48 523.84 351.00 532.80 351.00 C 541.76 351.00 548.80 358.48 548.80 368.00 L 548.80 371.40 C 548.80 379.56 543.36 386.36 536.00 388.06 L 536.00 395.20 L 529.60 395.20 L 529.60 388.40 L 529.60 388.40 Z M 529.60 398.60 L 536.00 398.60 L 536.00 405.40 L 529.60 405.40 L 529.60 398.60 Z" fill="#ffffff" fill-rule="nonzero" group-id="1,3" id="形状" node-id="116" stroke="none" target-height="54.399994" target-width="32" target-x="516.8" target-y="351"/></g><g node-id="307"><path d="M 720.00 749.00 C 720.00 757.84 697.61 765.00 670.00 765.00 C 642.39 765.00 620.00 757.84 620.00 749.00 C 620.00 740.16 642.39 733.00 670.00 733.00 C 697.61 733.00 720.00 740.16 720.00 749.00 Z" fill="#ccdcf6" fill-rule="evenodd" group-id="1,4" id="椭圆形" node-id="118" stroke="none" target-height="32" target-width="100" target-x="620" target-y="733"/><path d="M 654.63 737.44 L 653.80 742.86 C 650.42 742.96 646.75 743.95 642.78 745.83 C 640.23 747.47 640.12 748.21 640.03 749.62 C 639.98 750.57 647.19 750.57 661.68 749.62 L 661.68 735.45 L 654.63 737.44 Z" fill="url(#linearGradient1)" fill-rule="nonzero" group-id="1,4" id="路径-52" node-id="119" stroke="none" target-height="15.115967" target-width="21.699402" target-x="639.9781" target-y="735.4491"/><path d="M 686.63 737.44 L 685.80 742.86 C 682.42 742.96 678.75 743.95 674.78 745.83 C 672.23 747.47 672.12 748.21 672.03 749.62 C 671.98 750.57 679.19 750.57 693.68 749.62 L 693.68 735.45 L 686.63 737.44 Z" fill="url(#linearGradient-21)" fill-rule="nonzero" group-id="1,4" id="路径-52备份-2" node-id="120" stroke="none" target-height="15.115967" target-width="21.699402" target-x="671.9781" target-y="735.4491"/><path d="M 679.48 625.99 C 684.68 626.01 688.83 626.63 688.83 626.63 C 688.83 626.63 687.38 645.25 688.53 665.55 C 690.43 698.82 695.32 740.43 695.32 740.43 L 684.99 740.43 C 684.99 740.43 668.01 684.20 668.19 647.51 C 662.04 678.42 662.83 740.97 662.83 740.97 L 651.96 739.89 C 651.96 739.89 648.13 702.02 647.18 671.57 C 646.42 646.91 648.50 628.45 648.50 628.45 C 653.82 627.73 659.20 627.67 664.54 628.26 C 664.55 628.26 664.57 628.27 664.58 628.27 C 666.93 627.50 669.88 626.70 672.89 626.34 C 674.94 626.09 677.02 625.99 678.97 625.99 L 679.48 625.99 Z" fill="url(#linearGradient-22)" fill-rule="nonzero" group-id="1,4" id="腿" node-id="121" stroke="none" target-height="114.98645" target-width="48.904602" target-x="646.4182" target-y="625.98535"/><g node-id="311"><path d="M 679.71 540.43 L 664.99 540.43 L 664.99 555.15 L 679.71 555.15 Z" fill="url(#linearGradient-23)" fill-rule="evenodd" group-id="1,4,8" id="矩形" node-id="123" stroke="none" target-height="14.725891" target-width="14.725952" target-x="664.9884" target-y="540.428"/><path d="M 655.62 529.05 C 655.62 538.29 662.21 545.78 670.34 545.78 C 678.48 545.78 685.07 538.29 685.07 529.05 C 685.07 519.81 678.48 512.31 670.34 512.31 C 662.21 512.31 655.62 519.81 655.62 529.05 Z" fill="url(#linearGradient-24)" fill-rule="evenodd" group-id="1,4,8" id="椭圆形" node-id="124" stroke="none" target-height="33.468018" target-width="29.451904" target-x="655.6174" target-y="512.3148"/><path d="M 656.98 518.38 C 661.07 524.01 665.70 527.40 670.88 528.55 C 672.67 529.43 676.58 526.73 677.41 530.36 C 677.64 532.80 676.27 536.15 674.32 535.54 C 675.01 537.69 676.95 540.12 680.13 542.82 C 683.41 544.11 686.74 543.63 690.09 541.38 C 694.66 537.09 700.07 522.88 689.55 510.67 C 689.23 510.48 677.12 498.87 662.13 508.79 C 658.36 511.23 656.65 514.43 656.98 518.38 Z" fill="#483029" fill-rule="evenodd" group-id="1,4,8" id="路径-53" node-id="125" stroke="none" target-height="45.234528" target-width="43.41626" target-x="656.65015" target-y="498.87045"/><path d="M 680.31 509.64 C 680.31 513.74 683.64 517.07 687.75 517.07 C 691.85 517.07 695.18 513.74 695.18 509.64 C 695.18 505.53 691.85 502.20 687.75 502.20 C 683.64 502.20 680.31 505.53 680.31 509.64 Z" fill="#483029" fill-rule="evenodd" group-id="1,4,8" id="椭圆形" node-id="126" stroke="none" target-height="14.874695" target-width="14.874695" target-x="680.3093" target-y="502.2"/></g><g node-id="312"><path d="M 663.49 549.01 C 663.49 549.01 656.76 551.99 653.47 557.51 C 648.03 566.60 644.91 582.14 644.91 582.14 C 644.91 582.14 644.66 586.86 641.08 593.57 C 637.18 600.87 635.77 601.78 635.77 601.78 C 635.77 601.78 630.20 605.56 628.69 605.89 C 626.85 606.29 622.50 608.23 622.50 608.23 L 625.45 617.32 C 625.45 617.32 637.58 616.20 646.09 612.34 C 652.45 609.45 654.94 601.78 654.94 601.78 L 663.49 549.01 Z" fill="url(#linearGradient-25)" fill-rule="evenodd" group-id="1,4,9" id="胳膊" node-id="128" stroke="none" target-height="68.3125" target-width="40.99585" target-x="622.49854" target-y="549.00757"/><path d="M 666.79 554.98 L 679.71 547.84 C 679.71 547.84 680.91 548.95 681.39 549.48 C 682.35 550.16 683.20 550.83 683.20 550.83 C 683.20 550.83 686.46 552.70 688.27 555.75 C 690.43 559.41 690.33 571.88 690.33 571.88 C 690.33 571.88 689.97 581.20 690.63 590.93 C 691.77 607.75 692.29 627.67 692.29 627.67 C 692.29 627.67 678.87 628.39 668.75 628.46 C 658.09 628.54 647.86 627.88 647.86 627.88 L 654.35 568.36 C 654.35 568.36 655.33 558.19 659.07 552.23 C 660.72 549.61 664.90 548.51 664.90 548.51 L 666.79 554.98 Z" fill="url(#linearGradient-26)" fill-rule="evenodd" group-id="1,4,9" id="衣服" node-id="129" stroke="none" target-height="80.69495" target-width="44.426758" target-x="647.8633" target-y="547.84485"/><path d="M 683.55 551.06 C 683.55 551.06 689.50 554.87 691.52 558.39 C 694.56 563.71 695.94 587.71 695.94 587.71 C 695.94 587.71 696.46 591.78 694.46 595.04 C 692.33 598.52 672.93 610.28 672.93 610.28 L 657.01 619.08 L 651.99 607.94 L 679.13 588.00 C 679.13 588.00 680.37 587.02 680.60 585.66 C 680.82 584.38 678.24 569.53 678.24 569.53 C 678.24 569.53 677.20 563.60 678.83 559.27 C 680.28 555.42 683.55 551.06 683.55 551.06 Z" fill="url(#linearGradient-27)" fill-rule="evenodd" group-id="1,4,9" id="胳膊-2" node-id="130" stroke="none" target-height="68.02057" target-width="44.467163" target-x="651.9915" target-y="551.05994"/><path d="M 618.07 593.87 L 648.45 593.87 C 648.84 593.87 649.22 594.02 649.50 594.30 C 649.77 594.57 649.93 594.94 649.93 595.33 L 650.81 615.27 C 650.81 615.66 650.66 616.03 650.38 616.31 C 650.10 616.58 649.73 616.73 649.34 616.73 L 620.14 616.73 C 619.75 616.73 619.37 616.58 619.09 616.31 C 618.82 616.03 618.66 615.66 618.66 615.27 L 616.60 595.33 C 616.60 594.94 616.75 594.57 617.03 594.30 C 617.31 594.02 617.68 593.87 618.07 593.87 L 618.07 593.87 Z" fill="#483029" fill-rule="evenodd" group-id="1,4,9" id="iPad" node-id="131" stroke="none" target-height="22.86914" target-width="34.213806" target-x="616.5982" target-y="593.8658"/><path d="M 651.99 608.23 L 643.56 608.50 C 643.56 608.50 642.80 608.46 642.77 609.82 C 642.78 610.17 642.99 610.47 643.30 610.62 L 645.40 611.42 C 644.37 611.69 643.31 611.87 642.25 611.95 C 640.85 612.02 639.45 612.02 638.05 611.95 C 638.05 611.95 637.13 611.85 637.26 613.27 C 637.40 614.77 637.79 616.99 637.79 616.99 C 637.79 616.99 637.96 618.50 639.88 618.84 C 642.35 619.28 648.28 619.37 648.28 619.37 C 649.77 619.39 651.26 619.30 652.74 619.11 C 653.96 618.92 656.41 618.05 656.41 618.05 C 656.41 618.05 655.35 615.40 654.33 612.85 C 653.67 611.26 652.89 609.71 651.99 608.23 Z M 618.48 608.36 L 625.66 607.94 C 625.66 607.94 626.30 607.84 626.42 609.13 C 626.44 609.45 626.30 609.75 626.03 609.93 L 624.31 610.85 C 625.20 611.03 626.11 611.11 627.02 611.10 C 628.21 611.06 629.40 610.95 630.58 610.76 C 630.58 610.76 631.35 610.60 631.35 611.96 C 631.34 613.39 631.17 615.52 631.17 615.52 C 631.09 616.44 630.43 617.22 629.53 617.45 C 627.46 618.06 622.44 618.62 622.44 618.62 C 621.17 618.76 619.90 618.79 618.63 618.73 C 618.17 618.69 617.55 618.79 617.11 618.50 C 616.73 618.19 616.44 617.80 616.25 617.35 C 615.91 615.58 615.92 613.76 616.28 611.99 C 616.45 611.17 616.69 610.36 616.98 609.58 C 617.19 608.91 617.78 608.43 618.48 608.36 L 618.48 608.36 Z" fill="#fee0bc" fill-rule="evenodd" group-id="1,4,9" id="手" node-id="132" stroke="none" target-height="11.548645" target-width="40.508667" target-x="615.9059" target-y="607.8434"/></g></g></g></svg>